<svg width="32" height="32" viewBox="0 0 32 32" fill="none" xmlns="http://www.w3.org/2000/svg">
  <!-- 背景圆形 -->
  <circle cx="16" cy="16" r="16" fill="#FF2442"/>
  
  <!-- 文档图标 -->
  <path 
    d="M10 8C10 7.44772 10.4477 7 11 7H21C21.5523 7 22 7.44772 22 8V24C22 24.5523 21.5523 25 21 25H11C10.4477 25 10 24.5523 10 24V8Z" 
    fill="white"
  />
  
  <!-- 文本线条装饰 -->
  <rect x="12" y="11" width="8" height="1.5" rx="0.75" fill="#FF2442" opacity="0.9"/>
  <rect x="12" y="14" width="6" height="1.5" rx="0.75" fill="#FF2442" opacity="0.7"/>
  <rect x="12" y="17" width="4" height="1.5" rx="0.75" fill="#FF2442" opacity="0.5"/>
  
  <!-- 提取箭头 -->
  <path 
    d="M19 20L21.5 22.5M21.5 22.5L24 20M21.5 22.5V19" 
    stroke="white" 
    stroke-width="2" 
    stroke-linecap="round" 
    stroke-linejoin="round"
  />
</svg> 